Coordinates
version=1
nRows=29
nColumns=24
inDegrees=yes

Units are S.I. units (second, meters, Newtons, ...)
Angles are in degrees.

endheader
time	pelvis_tilt	pelvis_list	pelvis_rotation	pelvis_tx	pelvis_ty	pelvis_tz	hip_flexion_r	hip_adduction_r	hip_rotation_r	knee_angle_r	ankle_angle_r	subtalar_angle_r	mtp_angle_r	hip_flexion_l	hip_adduction_l	hip_rotation_l	knee_angle_l	ankle_angle_l	subtalar_angle_l	mtp_angle_l	lumbar_extension	lumbar_bending	lumbar_rotation
      2.10000000	     53.58508223	     -9.47416855	      3.19741214	      0.84653184	      1.07201964	     -0.23769045	     21.59086145	      0.81311721	     -8.21113685	    -11.40965234	     -4.35089309	     15.71470993	      0.00000000	     18.69359230	    -11.70659623	      2.18093395	    -68.47823411	      2.05700313	      0.90495992	      0.00000000	      0.00000000	      0.00000000	      0.00000000
      2.11000000	     53.58762343	     -9.47362826	      3.19653017	      0.84652481	      1.07201159	     -0.23768841	     21.58967453	      0.81431114	     -8.21034724	    -11.41474029	     -4.37400057	     15.69186698	      0.00000000	     18.69018239	    -11.70578340	      2.18464356	    -68.48231302	      2.05157740	      0.90560243	      0.00000000	      0.00000000	      0.00000000	      0.00000000
      2.12000000	     53.58899762	     -9.47141080	      3.19477251	      0.84652312	      1.07201210	     -0.23768687	     21.58782720	      0.81514068	     -8.21168879	    -11.41629877	     -4.39947795	     15.66502129	      0.00000000	     18.68671859	    -11.70306373	      2.18889858	    -68.48612809	      2.04937686	      0.90356175	      0.00000000	      0.00000000	      0.00000000	      0.00000000
      2.13000000	     53.58995781	     -9.46776440	      3.19267570	      0.84652625	      1.07202047	     -0.23768213	     21.58501448	      0.81620930	     -8.21512564	    -11.41365832	     -4.42303123	     15.63838749	      0.00000000	     18.68283620	    -11.69929735	      2.19274256	    -68.48939491	      2.04984648	      0.89968484	      0.00000000	      0.00000000	      0.00000000	      0.00000000
      2.14000000	     53.59119806	     -9.46386787	      3.19076867	      0.84653404	      1.07203257	     -0.23767520	     21.58119124	      0.81817503	     -8.22037498	    -11.40741218	     -4.44133896	     15.61524337	      0.00000000	     18.67806690	    -11.69538543	      2.19488669	    -68.49194176	      2.05159688	      0.89612746	      0.00000000	      0.00000000	      0.00000000	      0.00000000
      2.15000000	     53.59312980	     -9.46098644	      3.18934547	      0.84654322	      1.07204309	     -0.23767118	     21.57631112	      0.82154336	     -8.22687256	    -11.39932590	     -4.45282479	     15.59749846	      0.00000000	     18.67187698	    -11.69211504	      2.19440550	    -68.49381614	      2.05321114	      0.89514177	      0.00000000	      0.00000000	      0.00000000	      0.00000000
      2.16000000	     53.59588296	     -9.45984953	      3.18842308	      0.84655003	      1.07204644	     -0.23766936	     21.57042050	      0.82630471	     -8.23377639	    -11.39165202	     -4.45787674	     15.58566174	      0.00000000	     18.66376998	    -11.69003978	      2.19127666	    -68.49530333	      2.05401688	      0.89774184	      0.00000000	      0.00000000	      0.00000000	      0.00000000
      2.17000000	     53.59965326	     -9.46009851	      3.18763706	      0.84655370	      1.07204357	     -0.23766792	     21.56382576	      0.83179854	     -8.24012302	    -11.38630821	     -4.45850828	     15.57911977	      0.00000000	     18.65373195	    -11.68957981	      2.18661480	    -68.49667635	      2.05444467	      0.90295884	      0.00000000	      0.00000000	      0.00000000	      0.00000000
      2.18000000	     53.60471671	     -9.46055542	      3.18642899	      0.84655577	      1.07204410	     -0.23766921	     21.55692226	      0.83700495	     -8.24512728	    -11.38443981	     -4.45758450	     15.57656105	      0.00000000	     18.64258111	    -11.69081658	      2.18213764	    -68.49791880	      2.05570959	      0.90822669	      0.00000000	      0.00000000	      0.00000000	      0.00000000
      2.19000000	     53.61094056	     -9.46045305	      3.18469646	      0.84655776	      1.07205309	     -0.23767225	     21.54998985	      0.84101916	     -8.24848515	    -11.38628102	     -4.45782261	     15.57637151	      0.00000000	     18.63160358	    -11.69296144	      2.17900986	    -68.49873568	      2.05895424	      0.91071868	      0.00000000	      0.00000000	      0.00000000	      0.00000000
      2.20000000	     53.61756267	     -9.45998156	      3.18307376	      0.84655905	      1.07206283	     -0.23767183	     21.54332729	      0.84340264	     -8.25049808	    -11.39106083	     -4.46087170	     15.57694022	      0.00000000	     18.62180983	    -11.69450380	      2.17724905	    -68.49881458	      2.06447475	      0.90868971	      0.00000000	      0.00000000	      0.00000000	      0.00000000
      2.21000000	     53.62360392	     -9.45949091	      3.18236242	      0.84655752	      1.07206676	     -0.23766872	     21.53742239	      0.84428278	     -8.25191531	    -11.39710330	     -4.46680084	     15.57691637	      0.00000000	     18.61358011	    -11.69415888	      2.17620292	    -68.49804957	      2.07154188	      0.90204468	      0.00000000	      0.00000000	      0.00000000	      0.00000000
      2.22000000	     53.62835336	     -9.45878186	      3.18282765	      0.84655290	      1.07206832	     -0.23766948	     21.53272013	      0.84412602	     -8.25353262	    -11.40236161	     -4.47420037	     15.57544216	      0.00000000	     18.60680263	    -11.69156126	      2.17527933	    -68.49655072	      2.07876973	      0.89211878	      0.00000000	      0.00000000	      0.00000000	      0.00000000
      2.23000000	     53.63169154	     -9.45736750	      3.18404512	      0.84654888	      1.07207267	     -0.23767676	     21.52926619	      0.84332307	     -8.25574792	    -11.40517261	     -4.48084218	     15.57230857	      0.00000000	     18.60123796	    -11.68721050	      2.17422108	    -68.49445719	      2.08470611	      0.88100418	      0.00000000	      0.00000000	      0.00000000	      0.00000000
      2.24000000	     53.63408829	     -9.45515398	      3.18535775	      0.84654911	      1.07208017	     -0.23768777	     21.52675014	      0.84205368	     -8.25835767	    -11.40476589	     -4.48459376	     15.56794105	      0.00000000	     18.59660190	    -11.68193565	      2.17292466	    -68.49183641	      2.08833802	      0.87073839	      0.00000000	      0.00000000	      0.00000000	      0.00000000
      2.25000000	     53.63625170	     -9.45269380	      3.18639071	      0.84655071	      1.07208713	     -0.23769901	     21.52482080	      0.84051699	     -8.26073706	    -11.40133376	     -4.48420112	     15.56317011	      0.00000000	     18.59237868	    -11.67639421	      2.17123735	    -68.48872390	      2.08937395	      0.86259951	      0.00000000	      0.00000000	      0.00000000	      0.00000000
      2.26000000	     53.63884367	     -9.45074338	      3.18705739	      0.84654550	      1.07208924	     -0.23770765	     21.52319925	      0.83913405	     -8.26227022	    -11.39581445	     -4.47966600	     15.55884782	      0.00000000	     18.58796212	    -11.67100121	      2.16908242	    -68.48506394	      2.08828642	      0.85671970	      0.00000000	      0.00000000	      0.00000000	      0.00000000
      2.27000000	     53.64237374	     -9.44961356	      3.18732505	      0.84652881	      1.07208503	     -0.23771207	     21.52159427	      0.83855695	     -8.26273385	    -11.38955134	     -4.47213834	     15.55546481	      0.00000000	     18.58300718	    -11.66616025	      2.16667580	    -68.48068658	      2.08606316	      0.85220079	      0.00000000	      0.00000000	      0.00000000	      0.00000000
      2.28000000	     53.64709377	     -9.44896783	      3.18721410	      0.84650542	      1.07207755	     -0.23771329	     21.51965112	      0.83944703	     -8.26238607	    -11.38391140	     -4.46343879	     15.55294833	      0.00000000	     18.57748579	    -11.66244981	      2.16446167	    -68.47553921	      2.08371075	      0.84772261	      0.00000000	      0.00000000	      0.00000000	      0.00000000
      2.29000000	     53.65289984	     -9.44840439	      3.18695242	      0.84648538	      1.07207319	     -0.23771129	     21.51705307	      0.84197860	     -8.26173864	    -11.37991007	     -4.45544040	     15.55074310	      0.00000000	     18.57139270	    -11.66048910	      2.16277618	    -68.46995712	      2.08174587	      0.84237168	      0.00000000	      0.00000000	      0.00000000	      0.00000000
      2.30000000	     53.65949760	     -9.44810805	      3.18695283	      0.84647395	      1.07207768	     -0.23770383	     21.51374116	      0.84559574	     -8.26125595	    -11.37794468	     -4.44955166	     15.54813345	      0.00000000	     18.56456446	    -11.66051712	      2.16154138	    -68.46456478	      2.07996316	      0.83629189	      0.00000000	      0.00000000	      0.00000000	      0.00000000
      2.31000000	     53.66662813	     -9.44860242	      3.18754131	      0.84646641	      1.07208983	     -0.23769342	     21.50990667	      0.84944035	     -8.26120485	    -11.37782893	     -4.44645595	     15.54464754	      0.00000000	     18.55689779	    -11.66212811	      2.16032733	    -68.45981140	      2.07764296	      0.83080043	      0.00000000	      0.00000000	      0.00000000	      0.00000000
      2.32000000	     53.67405091	     -9.45005940	      3.18870751	      0.84645549	      1.07210204	     -0.23768732	     21.50576875	      0.85287467	     -8.26163263	    -11.37901582	     -4.44610076	     15.54036601	      0.00000000	     18.54864765	    -11.66442577	      2.15875799	    -68.45562122	      2.07408007	      0.82787224	      0.00000000	      0.00000000	      0.00000000	      0.00000000
      2.33000000	     53.68142946	     -9.45209783	      3.19018069	      0.84644279	      1.07210945	     -0.23768754	     21.50151306	      0.85561552	     -8.26239198	    -11.38073506	     -4.44783381	     15.53601517	      0.00000000	     18.54040849	    -11.66636261	      2.15680273	    -68.45151748	      2.06906913	      0.82927318	      0.00000000	      0.00000000	      0.00000000	      0.00000000
      2.34000000	     53.68828734	     -9.45400587	      3.19164096	      0.84643566	      1.07211348	     -0.23768964	     21.49734098	      0.85763013	     -8.26321287	    -11.38208641	     -4.45060751	     15.53280325	      0.00000000	     18.53281501	    -11.66711951	      2.15476907	    -68.44705013	      2.06306751	      0.83575337	      0.00000000	      0.00000000	      0.00000000	      0.00000000
      2.35000000	     53.69411981	     -9.45509044	      3.19271242	      0.84643443	      1.07211645	     -0.23769125	     21.49339563	      0.85887996	     -8.26383042	    -11.38223689	     -4.45322208	     15.53205494	      0.00000000	     18.52629726	    -11.66642814	      2.15314397	    -68.44212676	      2.05702204	      0.84661813	      0.00000000	      0.00000000	      0.00000000	      0.00000000
      2.36000000	     53.69863698	     -9.45507681	      3.19299170	      0.84643219	      1.07211822	     -0.23769318	     21.48973007	      0.85911477	     -8.26415009	    -11.38064091	     -4.45457608	     15.53477995	      0.00000000	     18.52098581	    -11.66453524	      2.15229369	    -68.43706524	      2.05198391	      0.85986671	      0.00000000	      0.00000000	      0.00000000	      0.00000000
      2.37000000	     53.70191001	     -9.45410788	      3.19239237	      0.84642678	      1.07211945	     -0.23769576	     21.48646719	      0.85817284	     -8.26440292	    -11.37716205	     -4.45386943	     15.54133327	      0.00000000	     18.51666787	    -11.66187319	      2.15216621	    -68.43237902	      2.04868656	      0.87285049	      0.00000000	      0.00000000	      0.00000000	      0.00000000
      2.38000000	     53.70421654	     -9.45235019	      3.19136159	      0.84642437	      1.07212212	     -0.23769921	     21.48375993	      0.85646756	     -8.26518137	    -11.37217287	     -4.45071371	     15.55128176	      0.00000000	     18.51287704	    -11.65883813	      2.15230138	    -68.42840130	      2.04727789	      0.88315025	      0.00000000	      0.00000000	      0.00000000	      0.00000000
